#define copy_width 32
#define copy_height 32
static char copy_bits[] = {
   0x00, 0x00, 0x00, 0x00, 0x00, 0x00, 0x00, 0x00, 0x00, 0x00, 0x00, 0x00,
   0xf8, 0xff, 0x07, 0x00, 0x08, 0x00, 0x04, 0x00, 0x08, 0x00, 0x04, 0x00,
   0xc8, 0x1f, 0x04, 0x00, 0x08, 0x00, 0x04, 0x00, 0x08, 0x00, 0x04, 0x00,
   0xc8, 0xf1, 0xff, 0x0f, 0x08, 0x10, 0x00, 0x08, 0x08, 0x10, 0x00, 0x08,
   0xc8, 0x90, 0x3f, 0x08, 0x08, 0x10, 0x00, 0x08, 0x08, 0x10, 0x00, 0x08,
   0x08, 0x90, 0x03, 0x08, 0x08, 0x10, 0x00, 0x08, 0x08, 0x10, 0x00, 0x08,
   0xe8, 0x97, 0x01, 0x08, 0x08, 0x10, 0x00, 0x08, 0x08, 0x10, 0x00, 0x08,
   0xf8, 0x1f, 0x00, 0x08, 0x00, 0x10, 0x00, 0x08, 0x00, 0x90, 0xff, 0x09,
   0x00, 0x10, 0x00, 0x08, 0x00, 0x10, 0x00, 0x08, 0x00, 0x10, 0x00, 0x08,
   0x00, 0xf0, 0xff, 0x0f, 0x00, 0x00, 0x00, 0x00, 0x00, 0x00, 0x00, 0x00,
   0x00, 0x00, 0x00, 0x00, 0x00, 0x00, 0x00, 0x00};
