#define cut.xbm_width 32
#define cut.xbm_height 32
static char cut.xbm_bits[] = {
   0x00, 0x00, 0x00, 0x00, 0x00, 0x00, 0x00, 0x00, 0x00, 0x00, 0x00, 0x00,
   0x00, 0x00, 0x00, 0x30, 0x00, 0x00, 0x00, 0x38, 0x00, 0x00, 0x00, 0x1c,
   0x38, 0x00, 0x00, 0x0e, 0x44, 0x00, 0x00, 0x07, 0x82, 0x00, 0x80, 0x07,
   0x82, 0x00, 0xc0, 0x03, 0x82, 0x01, 0xe0, 0x01, 0xc4, 0x03, 0xf0, 0x00,
   0x38, 0x0f, 0x78, 0x00, 0x00, 0x1c, 0x3c, 0x00, 0x00, 0x78, 0x1f, 0x00,
   0x00, 0xe0, 0x0f, 0x00, 0x00, 0x80, 0x0f, 0x00, 0x00, 0xc0, 0x1f, 0x00,
   0x00, 0xe0, 0x3f, 0x00, 0x00, 0x60, 0x78, 0x00, 0x00, 0x38, 0xf0, 0x00,
   0x00, 0x1c, 0xe0, 0x01, 0xf0, 0x07, 0xc0, 0x03, 0x88, 0x03, 0x80, 0x07,
   0x04, 0x01, 0x00, 0x0f, 0x04, 0x01, 0x00, 0x1e, 0x04, 0x01, 0x00, 0x3c,
   0x88, 0x00, 0x00, 0x78, 0x70, 0x00, 0x00, 0x70, 0x00, 0x00, 0x00, 0x40,
   0x00, 0x00, 0x00, 0x00, 0x00, 0x00, 0x00, 0x00};
