#define load_width 32
#define load_height 32
static char load_bits[] = {
   0x00, 0x00, 0x00, 0x00, 0x00, 0x00, 0x00, 0x00, 0x00, 0x40, 0x00, 0x00,
   0x00, 0xe0, 0x00, 0x00, 0x00, 0x50, 0x01, 0x00, 0x00, 0x40, 0x00, 0x00,
   0x00, 0x40, 0xe0, 0x0f, 0x00, 0x40, 0x10, 0x10, 0x00, 0x40, 0x08, 0x20,
   0xf8, 0xff, 0x07, 0x40, 0x04, 0x00, 0x00, 0x40, 0x04, 0x00, 0x00, 0x40,
   0x04, 0x00, 0x00, 0x40, 0x04, 0x20, 0x00, 0x40, 0x04, 0x20, 0x00, 0x40,
   0x04, 0x20, 0x00, 0x40, 0x04, 0x20, 0x00, 0x40, 0x04, 0x20, 0x00, 0x40,
   0x04, 0x20, 0x00, 0x40, 0x04, 0x20, 0x00, 0x40, 0x04, 0x20, 0x00, 0x40,
   0x04, 0x20, 0x00, 0x40, 0x04, 0x20, 0x00, 0x40, 0x04, 0x20, 0x00, 0x40,
   0x04, 0xe0, 0x1f, 0x40, 0x04, 0x00, 0x00, 0x40, 0x04, 0x00, 0x00, 0x40,
   0x04, 0x00, 0x00, 0x40, 0xfc, 0xff, 0xff, 0x7f, 0x00, 0x00, 0x00, 0x00,
   0x00, 0x00, 0x00, 0x00, 0x00, 0x00, 0x00, 0x00};
