#define new_width 32
#define new_height 32
static char new_bits[] = {
   0x00, 0x00, 0x00, 0x00, 0xfe, 0xff, 0xff, 0x01, 0x02, 0x00, 0x80, 0x03,
   0x02, 0x00, 0x80, 0x06, 0x02, 0x00, 0x80, 0x0c, 0x02, 0x00, 0x80, 0x18,
   0x02, 0x00, 0x80, 0x30, 0x02, 0x00, 0x80, 0x7f, 0x02, 0x00, 0x00, 0x60,
   0x02, 0x00, 0x00, 0x60, 0x02, 0x00, 0x00, 0x60, 0x02, 0x00, 0x00, 0x60,
   0x02, 0x00, 0x00, 0x60, 0x02, 0x00, 0x00, 0x60, 0x02, 0x00, 0x00, 0x60,
   0x02, 0x00, 0x00, 0x60, 0x02, 0x00, 0x00, 0x60, 0x02, 0x00, 0x00, 0x60,
   0x02, 0x00, 0x00, 0x60, 0x02, 0x00, 0x00, 0x60, 0x02, 0x00, 0x00, 0x60,
   0x02, 0x00, 0x00, 0x60, 0x02, 0x00, 0x00, 0x60, 0x02, 0x00, 0x00, 0x60,
   0x02, 0x00, 0x00, 0x60, 0x02, 0x00, 0x00, 0x60, 0x02, 0x00, 0x00, 0x60,
   0x02, 0x00, 0x00, 0x60, 0x02, 0x00, 0x00, 0x60, 0xfe, 0xff, 0xff, 0x7f,
   0xfc, 0xff, 0xff, 0x7f, 0x00, 0x00, 0x00, 0x00};
