#define paste.xbm_width 32
#define paste.xbm_height 32
static char paste.xbm_bits[] = {
   0x00, 0x00, 0x00, 0x00, 0x00, 0x7e, 0x00, 0x00, 0x00, 0x81, 0x00, 0x00,
   0xc0, 0xff, 0x03, 0x00, 0x78, 0x00, 0x1e, 0x00, 0xc8, 0xff, 0x13, 0x00,
   0x08, 0x00, 0x10, 0x00, 0x08, 0x00, 0x10, 0x00, 0x08, 0x00, 0x10, 0x00,
   0x08, 0x00, 0x10, 0x00, 0x08, 0x00, 0x10, 0x00, 0x08, 0xe0, 0xff, 0x1f,
   0x08, 0x20, 0x00, 0x10, 0x08, 0x20, 0x00, 0x10, 0x08, 0x20, 0x7f, 0x10,
   0x08, 0x20, 0x00, 0x10, 0x08, 0x20, 0x00, 0x10, 0x08, 0x20, 0xbf, 0x13,
   0x08, 0x20, 0x00, 0x10, 0x08, 0x20, 0x00, 0x10, 0x08, 0x20, 0x3f, 0x10,
   0x08, 0x20, 0x80, 0x13, 0x08, 0x20, 0x00, 0x10, 0x08, 0x20, 0x00, 0x10,
   0xf8, 0x3f, 0x3f, 0x13, 0x00, 0x20, 0x00, 0x10, 0x00, 0x20, 0x00, 0x10,
   0x00, 0x20, 0x00, 0x10, 0x00, 0xe0, 0xff, 0x1f, 0x00, 0x00, 0x00, 0x00,
   0x00, 0x00, 0x00, 0x00, 0x00, 0x00, 0x00, 0x00};
