#define redo_width 32
#define redo_height 32
static char redo_bits[] = {
   0x00, 0x00, 0x00, 0x00, 0x00, 0x00, 0x00, 0x00, 0x00, 0x00, 0x00, 0x00,
   0x00, 0xe0, 0x00, 0x00, 0x00, 0x1c, 0x07, 0x00, 0x00, 0x03, 0x18, 0x00,
   0x80, 0x00, 0x20, 0x00, 0x40, 0x00, 0x40, 0x00, 0x20, 0x00, 0x80, 0x00,
   0x20, 0x00, 0x80, 0x00, 0x10, 0x00, 0x00, 0x01, 0x10, 0x00, 0x00, 0x01,
   0x10, 0x00, 0x00, 0x01, 0x08, 0x00, 0x00, 0x02, 0x08, 0x00, 0x60, 0x32,
   0x08, 0x00, 0xc0, 0x1a, 0x08, 0x00, 0x80, 0x0f, 0x00, 0x00, 0x80, 0x07,
   0x00, 0xfe, 0x00, 0x07, 0x00, 0x02, 0x01, 0x02, 0x00, 0x02, 0x01, 0x00,
   0x00, 0x02, 0x01, 0x00, 0x00, 0x02, 0x01, 0x00, 0x00, 0xfe, 0x00, 0x00,
   0x00, 0x42, 0x00, 0x00, 0x00, 0x82, 0x01, 0x00, 0x00, 0x02, 0x01, 0x00,
   0x00, 0x02, 0x01, 0x00, 0x00, 0x02, 0x01, 0x00, 0x00, 0x02, 0x01, 0x00,
   0x00, 0x00, 0x00, 0x00, 0x00, 0x00, 0x00, 0x00};
