#define replace_width 32
#define replace_height 32
static char replace_bits[] = {
   0x00, 0x00, 0x00, 0x00, 0x00, 0x00, 0x20, 0x00, 0x00, 0x00, 0x70, 0x00,
   0x00, 0x00, 0xf8, 0x00, 0x00, 0x00, 0xac, 0x01, 0x00, 0x00, 0x20, 0x00,
   0x00, 0x00, 0x30, 0x00, 0x00, 0x00, 0x10, 0x00, 0x80, 0x00, 0x18, 0x00,
   0x80, 0x00, 0x0e, 0x00, 0x40, 0xc1, 0x03, 0x00, 0x40, 0x79, 0x00, 0x00,
   0x40, 0x01, 0x00, 0x00, 0x20, 0x02, 0x00, 0x00, 0x20, 0x02, 0xe0, 0x03,
   0x20, 0x02, 0x20, 0x04, 0xe0, 0x03, 0x20, 0x04, 0x10, 0x04, 0x20, 0x04,
   0x10, 0x04, 0x20, 0x06, 0x10, 0x04, 0xe0, 0x03, 0x08, 0x08, 0x20, 0x06,
   0x08, 0x08, 0x20, 0x04, 0x00, 0x02, 0x20, 0x04, 0x00, 0x07, 0x20, 0x04,
   0x80, 0x0f, 0xe0, 0x03, 0xc0, 0x1a, 0x00, 0x00, 0x00, 0x06, 0x30, 0x00,
   0x00, 0x0c, 0x18, 0x00, 0x00, 0x38, 0x0e, 0x00, 0x00, 0xe0, 0x03, 0x00,
   0x00, 0x00, 0x00, 0x00, 0x00, 0x00, 0x00, 0x00};
