#define undo_width 32
#define undo_height 32
static char undo_bits[] = {
   0x00, 0x00, 0x00, 0x00, 0x00, 0x00, 0x00, 0x00, 0x00, 0x00, 0x00, 0x00,
   0x00, 0x00, 0x07, 0x00, 0x00, 0xe0, 0x38, 0x00, 0x00, 0x18, 0xc0, 0x00,
   0x00, 0x04, 0x00, 0x01, 0x00, 0x02, 0x00, 0x02, 0x00, 0x01, 0x00, 0x04,
   0x00, 0x01, 0x00, 0x04, 0x80, 0x00, 0x00, 0x08, 0x80, 0x00, 0x00, 0x08,
   0x80, 0x00, 0x00, 0x08, 0x40, 0x00, 0x00, 0x10, 0x48, 0x02, 0x00, 0x10,
   0x58, 0x03, 0x00, 0x10, 0xf0, 0x01, 0x00, 0x10, 0xe0, 0x00, 0x00, 0x10,
   0x40, 0x00, 0x00, 0x00, 0x00, 0x10, 0x40, 0x00, 0x00, 0x10, 0x40, 0x00,
   0x00, 0x10, 0x40, 0x00, 0x00, 0x10, 0x40, 0x00, 0x00, 0x10, 0x40, 0x00,
   0x00, 0x10, 0x40, 0x00, 0x00, 0x10, 0x40, 0x00, 0x00, 0x10, 0x40, 0x00,
   0x00, 0x10, 0x40, 0x00, 0x00, 0x20, 0x20, 0x00, 0x00, 0xc0, 0x1f, 0x00,
   0x00, 0x00, 0x00, 0x00, 0x00, 0x00, 0x00, 0x00};
